[Header]
FileType HTR
DataType HTRS
FileVersion 1
NumSegments 64
NumFrames 3
DataFrameRate 24
EulerRotationOrder ZYX
CalibrationUnits mm
RotationUnits Degrees
GlobalAxisofGravity Y
BoneLengthAxis Y
ScaleFactor 1.0
[SegmentNames&Hierarchy]
Hips	GLOBAL
Spine	Hips
Spine1	Spine
Spine2	Spine1
Neck	Spine2
Head	Neck
LeftEye	Head
RightEye	Head
LeftShoulder	Spine2
LeftArm	LeftShoulder
LeftForeArm	LeftArm
LeftHand	LeftForeArm
LeftHandThumb1	LeftHand
LeftHandThumb2	LeftHandThumb1
LeftHandThumb3	LeftHandThumb2
LeftHandThumb4	LeftHandThumb3
LeftHandIndex1	LeftHand
LeftHandIndex2	LeftHandIndex1
LeftHandIndex3	LeftHandIndex2
LeftHandIndex4	LeftHandIndex3
LeftHandMiddle1	LeftHand
LeftHandMiddle2	LeftHandMiddle1
LeftHandMiddle3	LeftHandMiddle2
LeftHandMiddle4	LeftHandMiddle3
LeftHandRing1	LeftHand
LeftHandRing2	LeftHandRing1
LeftHandRing3	LeftHandRing2
LeftHandRing4	LeftHandRing3
LeftHandPinky1	LeftHand
LeftHandPinky2	LeftHandPinky1
LeftHandPinky3	LeftHandPinky2
LeftHandPinky4	LeftHandPinky3
RightShoulder	Spine2
RightArm	RightShoulder
RightForeArm	RightArm
RightHand	RightForeArm
RightHandPinky1	RightHand
RightHandPinky2	RightHandPinky1
RightHandPinky3	RightHandPinky2
RightHandPinky4	RightHandPinky3
RightHandRing1	RightHand
RightHandRing2	RightHandRing1
RightHandRing3	RightHandRing2
RightHandRing4	RightHandRing3
RightHandMiddle1	RightHand
RightHandMiddle2	RightHandMiddle1
RightHandMiddle3	RightHandMiddle2
RightHandMiddle4	RightHandMiddle3
RightHandIndex1	RightHand
RightHandIndex2	RightHandIndex1
RightHandIndex3	RightHandIndex2
RightHandIndex4	RightHandIndex3
RightHandThumb1	RightHand
RightHandThumb2	RightHandThumb1
RightHandThumb3	RightHandThumb2
RightHandThumb4	RightHandThumb3
LeftUpLeg	Hips
LeftLeg	LeftUpLeg
LeftFoot	LeftLeg
LeftToeBase	LeftFoot
RightUpLeg	Hips
RightLeg	RightUpLeg
RightFoot	RightLeg
RightToeBase	RightFoot
[BasePosition]
Hips	0	0	0	0	0	0	1
Spine	0	0	0	0	0	0	1
Spine1	0	0	0	0	0	0	1
Spine2	0	0	0	0	0	0	1
Neck	0	0	0	0	0	0	1
Head	0	0	0	0	0	0	1
LeftEye	0	0	0	0	0	0	1
RightEye	0	0	0	0	0	0	1
LeftShoulder	0	0	0	0	0	0	1
LeftArm	0	0	0	0	0	0	1
LeftForeArm	0	0	0	0	0	0	1
LeftHand	0	0	0	0	0	0	1
LeftHandThumb1	0	0	0	0	0	0	1
LeftHandThumb2	0	0	0	0	0	0	1
LeftHandThumb3	0	0	0	0	0	0	1
LeftHandThumb4	0	0	0	0	0	0	1
LeftHandIndex1	0	0	0	0	0	0	1
LeftHandIndex2	0	0	0	0	0	0	1
LeftHandIndex3	0	0	0	0	0	0	1
LeftHandIndex4	0	0	0	0	0	0	1
LeftHandMiddle1	0	0	0	0	0	0	1
LeftHandMiddle2	0	0	0	0	0	0	1
LeftHandMiddle3	0	0	0	0	0	0	1
LeftHandMiddle4	0	0	0	0	0	0	1
LeftHandRing1	0	0	0	0	0	0	1
LeftHandRing2	0	0	0	0	0	0	1
LeftHandRing3	0	0	0	0	0	0	1
LeftHandRing4	0	0	0	0	0	0	1
LeftHandPinky1	0	0	0	0	0	0	1
LeftHandPinky2	0	0	0	0	0	0	1
LeftHandPinky3	0	0	0	0	0	0	1
LeftHandPinky4	0	0	0	0	0	0	1
RightShoulder	0	0	0	0	0	0	1
RightArm	0	0	0	0	0	0	1
RightForeArm	0	0	0	0	0	0	1
RightHand	0	0	0	0	0	0	1
RightHandPinky1	0	0	0	0	0	0	1
RightHandPinky2	0	0	0	0	0	0	1
RightHandPinky3	0	0	0	0	0	0	1
RightHandPinky4	0	0	0	0	0	0	1
RightHandRing1	0	0	0	0	0	0	1
RightHandRing2	0	0	0	0	0	0	1
RightHandRing3	0	0	0	0	0	0	1
RightHandRing4	0	0	0	0	0	0	1
RightHandMiddle1	0	0	0	0	0	0	1
RightHandMiddle2	0	0	0	0	0	0	1
RightHandMiddle3	0	0	0	0	0	0	1
RightHandMiddle4	0	0	0	0	0	0	1
RightHandIndex1	0	0	0	0	0	0	1
RightHandIndex2	0	0	0	0	0	0	1
RightHandIndex3	0	0	0	0	0	0	1
RightHandIndex4	0	0	0	0	0	0	1
RightHandThumb1	0	0	0	0	0	0	1
RightHandThumb2	0	0	0	0	0	0	1
RightHandThumb3	0	0	0	0	0	0	1
RightHandThumb4	0	0	0	0	0	0	1
LeftUpLeg	0	0	0	0	0	0	1
LeftLeg	0	0	0	0	0	0	1
LeftFoot	0	0	0	0	0	0	1
LeftToeBase	0	0	0	0	0	0	1
RightUpLeg	0	0	0	0	0	0	1
RightLeg	0	0	0	0	0	0	1
RightFoot	0	0	0	0	0	0	1
RightToeBase	0	0	0	0	0	0	1
[Hips]
6	-31.03940964	1008.223755	20.37538338	-2.602929831	17.48102188	-5.655508041	1.0
7	-36.87083817	1007.584778	12.48256207	-2.97246027	20.66752243	-5.829201221	1.0
8	-42.27378464	1007.105652	3.239612818	-3.359139204	23.85027122	-6.037894726	1.0
[Spine]
6	0	101.8159943	1.315000057	1.231001019	1.791680574	2.512083769	1.0
7	0	101.8159943	1.315000057	1.374973774	2.531642199	2.159436464	1.0
8	0	101.8159943	1.315000057	1.535485864	3.286963224	1.784721494	1.0
[Spine1]
6	0	100.8349991	-10.00800037	1.121265769	3.983297348	4.873713017	1.0
7	0	100.8349991	-10.00800037	1.251469135	4.953608036	4.621114254	1.0
8	0	100.8349991	-10.00800037	1.385271192	5.919536591	4.385214329	1.0
[Spine2]
6	0	91	-13.73399925	1.43885088	4.454295635	4.743321419	1.0
7	0	91	-13.73399925	1.636167407	5.412932396	4.484710217	1.0
8	0	91	-13.73399925	1.834905505	6.367591381	4.244331837	1.0
[Neck]
6	0	166.7169952	-25.16200066	-0.1112249196	-1.452561021	-3.896528244	1.0
7	0	166.7169952	-25.16200066	-0.2306580395	-0.7144297957	-4.462357521	1.0
8	0	166.7169952	-25.16200066	-0.3301769793	0.08829664439	-5.040756226	1.0
[Head]
6	0	96.17900085	16.84999847	-0.8618953824	-4.243165016	-7.910829544	1.0
7	0	96.17900085	16.84999847	-1.906078339	-3.999437094	-8.203227997	1.0
8	0	96.17900085	16.84999847	-3.011443615	-3.714588165	-8.542046547	1.0
[LeftEye]
6	30.6760006	64.09500122	92.83599854	0	0	0	1.0
7	30.6760006	64.09500122	92.83599854	0	0	0	1.0
8	30.6760006	64.09500122	92.83599854	0	0	0	1.0
[RightEye]
6	-30.6760006	64.09500122	92.83499908	0	0	0	1.0
7	-30.6760006	64.09500122	92.83499908	0	0	0	1.0
8	-30.6760006	64.09500122	92.83499908	0	0	0	1.0
[LeftShoulder]
6	45.70400238	109.4599991	-26.28000069	5.343899727	-12.88719463	-7.994179249	1.0
7	45.70400238	109.4599991	-26.28000069	5.35961628	-12.98089218	-8.079939842	1.0
8	45.70400238	109.4599991	-26.28000069	5.353955269	-13.08822632	-8.067863464	1.0
[LeftArm]
6	105.923996	-5.24600029	-22.32099915	-10.32127857	4.936436176	-81.7037735	1.0
7	105.923996	-5.24600029	-22.32099915	-12.10905933	4.69961071	-81.62296295	1.0
8	105.923996	-5.24600029	-22.32099915	-13.75824928	4.407159328	-81.66600037	1.0
[LeftForeArm]
6	278.414978	-0.0009999999311	0	-4.061412255e-06	-18.56212997	-0.0001929116552	1.0
7	278.414978	-0.0009999999311	0	-2.276516398e-06	-20.02594757	-0.0001962555834	1.0
8	278.414978	-0.0009999999311	0	6.549277032e-07	-21.25727463	-0.0002031032927	1.0
[LeftHand]
6	283.2879944	0	0	-26.71769333	-10.45441055	-5.311637878	1.0
7	283.2879944	0	0	-27.72790527	-12.07285595	-3.087951899	1.0
8	283.2879944	0	0	-28.97541618	-13.37087822	-0.958660543	1.0
[LeftHandThumb1]
6	24.6609993	-15.75	26.8239994	16.09123993	-7.290061951	10.89205837	1.0
7	24.6609993	-15.75	26.8239994	16.18134499	-7.269842625	10.87807274	1.0
8	24.6609993	-15.75	26.8239994	16.44453621	-7.063474655	10.78995514	1.0
[LeftHandThumb2]
6	32.29800034	-18.64699936	18.64699936	-0.4586315155	33.91006088	-2.529477119	1.0
7	32.29800034	-18.64699936	18.64699936	-0.4338470995	33.70057678	-2.447839499	1.0
8	32.29800034	-18.64699936	18.64699936	-0.4085725844	33.42399597	-2.381745815	1.0
[LeftHandThumb3]
6	26.52600098	-15.31499958	15.31499958	2.076635361	9.590147018	1.215244055	1.0
7	26.52600098	-15.31499958	15.31499958	2.072357893	9.529155731	1.351913929	1.0
8	26.52600098	-15.31499958	15.31499958	2.06987834	9.457562447	1.35818553	1.0
[LeftHandThumb4]
6	19.54599953	-11.28499985	11.28499985	0	0	0	1.0
7	19.54599953	-11.28499985	11.28499985	0	0	0	1.0
8	19.54599953	-11.28499985	11.28499985	0	0	0	1.0
[LeftHandIndex1]
6	91.09299469	-5.170999527	22.60099792	-0.4977689981	4.834873676	-9.734138489	1.0
7	91.09299469	-5.170999527	22.60099792	-0.4657832384	4.796991825	-9.403120995	1.0
8	91.09299469	-5.170999527	22.60099792	-0.4275597632	4.768231869	-9.057471275	1.0
[LeftHandIndex2]
6	36.76399994	0	0	-0.6208199263	2.756665945	-20.41909218	1.0
7	36.76399994	0	0	-0.6220166087	2.758886337	-20.44393349	1.0
8	36.76399994	0	0	-0.6236382127	2.761896849	-20.47760963	1.0
[LeftHandIndex3]
6	28.83100128	0	0	-0.1070313007	0.7903331518	-10.01694298	1.0
7	28.83100128	0	0	-0.1074663103	0.7927879691	-10.04173756	1.0
8	28.83100128	0	0	-0.1080570817	0.7961156368	-10.07535553	1.0
[LeftHandIndex4]
6	23.92700005	0	0	0	0	0	1.0
7	23.92700005	0	0	0	0	0	1.0
8	23.92700005	0	0	0	0	0	1.0
[LeftHandMiddle1]
6	95.33399963	0	0	-1.639784217	8.486393929	-16.8778801	1.0
7	95.33399963	0	0	-1.609449863	8.43006134	-16.63118744	1.0
8	95.33399963	0	0	-1.582537889	8.42110157	-16.4084301	1.0
[LeftHandMiddle2]
6	36.98199844	0	0	-1.438850045	3.836310625	-33.59183121	1.0
7	36.98199844	0	0	-1.439535737	3.837044239	-33.60174561	1.0
8	36.98199844	0	0	-1.439070582	3.836535215	-33.59490967	1.0
[LeftHandMiddle3]
6	29.50900078	0	0	-0.1529566497	1.502044916	-12.43428135	1.0
7	29.50900078	0	0	-0.1531717926	1.502953053	-12.44363976	1.0
8	29.50900078	0	0	-0.1530126333	1.502310991	-12.43696785	1.0
[LeftHandMiddle4]
6	28.3390007	0	0	0	0	0	1.0
7	28.3390007	0	0	0	0	0	1.0
8	28.3390007	0	0	0	0	0	1.0
[LeftHandRing1]
6	91.04499817	-0.4390000105	-18.65100098	-3.138454199	11.40144444	-27.89575958	1.0
7	91.04499817	-0.4390000105	-18.65100098	-3.110497236	11.39126587	-27.68574524	1.0
8	91.04499817	-0.4390000105	-18.65100098	-3.084711313	11.39968681	-27.48519707	1.0
[LeftHandRing2]
6	31.54000092	0	0	-1.200875521	4.059837341	-40.25721741	1.0
7	31.54000092	0	0	-1.201925159	4.061180115	-40.27447891	1.0
8	31.54000092	0	0	-1.202234268	4.061576843	-40.27959061	1.0
[LeftHandRing3]
6	29.37700081	0	0	-0.09345054626	1.908346057	-19.38925552	1.0
7	29.37700081	0	0	-0.09386187047	1.910017014	-19.40655899	1.0
8	29.37700081	0	0	-0.09399543703	1.910545111	-19.41202927	1.0
[LeftHandRing4]
6	26.47500038	0	0	0	0	0	1.0
7	26.47500038	0	0	0	0	0	1.0
8	26.47500038	0	0	0	0	0	1.0
[LeftHandPinky1]
6	80.77799988	-4.887000084	-38.06099701	-5.359005451	16.03908157	-38.10223389	1.0
7	80.77799988	-4.887000084	-38.06099701	-5.332824707	16.02732849	-37.92135239	1.0
8	80.77799988	-4.887000084	-38.06099701	-5.309868336	16.05325508	-37.71471786	1.0
[LeftHandPinky2]
6	36	0	0	-1.9298383	3.803685427	-45.45288849	1.0
7	36	0	0	-1.931747913	3.805361986	-45.47844315	1.0
8	36	0	0	-1.933580518	3.806970358	-45.50298691	1.0
[LeftHandPinky3]
6	21.14200211	0	0	-0.5343648195	2.814778566	-20.31765747	1.0
7	21.14200211	0	0	-0.5354539156	2.817084551	-20.34313965	1.0
8	21.14200211	0	0	-0.5365004539	2.819298983	-20.36761284	1.0
[LeftHandPinky4]
6	19.75699997	0	0	0	0	0	1.0
7	19.75699997	0	0	0	0	0	1.0
8	19.75699997	0	0	0	0	0	1.0
[RightShoulder]
6	-45.70000076	109.4620056	-26.28000069	4.722146511	4.084665775	4.551921844	1.0
7	-45.70000076	109.4620056	-26.28000069	4.688926697	4.423568249	4.200562477	1.0
8	-45.70000076	109.4620056	-26.28000069	4.650523186	4.803172112	3.803264618	1.0
[RightArm]
6	-105.9280014	-5.248000145	-22.32099915	-0.03587029129	-3.132331848	69.16490173	1.0
7	-105.9280014	-5.248000145	-22.32099915	-0.2732684612	-4.265888214	69.58940125	1.0
8	-105.9280014	-5.248000145	-22.32099915	-0.5379561782	-5.313761234	70.05204773	1.0
[RightForeArm]
6	-278.414978	0	0	3.944759555e-06	15.09542942	-2.08599522e-05	1.0
7	-278.414978	0	0	3.812633395e-06	14.34348679	-1.537910066e-05	1.0
8	-278.414978	0	0	3.824266969e-06	13.64247417	-3.846629625e-06	1.0
[RightHand]
6	-283.2879944	0	0.0009999999311	-11.70221138	-10.81708622	12.26633358	1.0
7	-283.2879944	0	0.0009999999311	-11.35249329	-11.80363941	12.20123959	1.0
8	-283.2879944	0	0.0009999999311	-10.99908161	-12.70977879	12.09963417	1.0
[RightHandPinky1]
6	-80.76699829	-4.885000229	-38.06000137	-5.165024757	-16.38520432	36.35057449	1.0
7	-80.76699829	-4.885000229	-38.06000137	-5.155626774	-16.3909359	36.2798233	1.0
8	-80.76699829	-4.885000229	-38.06000137	-5.148182869	-16.37837601	36.23353577	1.0
[RightHandPinky2]
6	-36	0	0.0009999999311	-1.945734024	-3.817150116	45.68335724	1.0
7	-36	0	0.0009999999311	-1.94456923	-3.816134214	45.66787338	1.0
8	-36	0	0.0009999999311	-1.942921996	-3.814696789	45.64596176	1.0
[RightHandPinky3]
6	-21.14200211	0	0	-0.7663503289	0.05297825485	22.14408875	1.0
7	-21.14200211	0	0	-0.7656517625	0.05435432866	22.12868309	1.0
8	-21.14200211	0	0	-0.7646628022	0.05630282313	22.10688591	1.0
[RightHandPinky4]
6	-19.75699997	0	0	0	0	0	1.0
7	-19.75699997	0	0	0	0	0	1.0
8	-19.75699997	0	0	0	0	0	1.0
[RightHandRing1]
6	-91.03599548	-0.4390000105	-18.65100098	-2.957242966	-11.63232899	26.41965294	1.0
7	-91.03599548	-0.4390000105	-18.65100098	-2.952048779	-11.62955952	26.38062859	1.0
8	-91.03599548	-0.4390000105	-18.65100098	-2.951289177	-11.6201067	26.37826729	1.0
[RightHandRing2]
6	-31.54000092	0	0	-1.197841763	-4.055699825	40.2105484	1.0
7	-31.54000092	0	0	-1.198610187	-4.056672096	40.22307587	1.0
8	-31.54000092	0	0	-1.199710131	-4.058064461	40.24103165	1.0
[RightHandRing3]
6	-29.37700081	0	0	-0.1385693997	0.08885657787	17.82757378	1.0
7	-29.37700081	0	0	-0.1388352066	0.0876403898	17.84002304	1.0
8	-29.37700081	0	0	-0.1392099559	0.08592410386	17.85759544	1.0
[RightHandRing4]
6	-26.47500038	0	0	0	0	0	1.0
7	-26.47500038	0	0	0	0	0	1.0
8	-26.47500038	0	0	0	0	0	1.0
[RightHandMiddle1]
6	-95.32500458	0	0	-1.43200469	-8.658434868	15.13029099	1.0
7	-95.32500458	0	0	-1.42860949	-8.640929222	15.10318089	1.0
8	-95.32500458	0	0	-1.431869268	-8.62024498	15.13226318	1.0
[RightHandMiddle2]
6	-36.98199844	0	0	-1.424004436	-3.81998229	33.3776474	1.0
7	-36.98199844	0	0	-1.42395246	-3.819935322	33.37699127	1.0
8	-36.98199844	0	0	-1.424187422	-3.820200682	33.38056183	1.0
[RightHandMiddle3]
6	-29.50900078	0	0	-0.2523258328	-1.674525857	15.86030769	1.0
7	-29.50900078	0	0	-0.2522961199	-1.674421787	15.859231	1.0
8	-29.50900078	0	0	-0.2523828447	-1.674699306	15.8621645	1.0
[RightHandMiddle4]
6	-28.3390007	0	0.0009999999311	0	0	0	1.0
7	-28.3390007	0	0.0009999999311	0	0	0	1.0
8	-28.3390007	0	0.0009999999311	0	0	0	1.0
[RightHandIndex1]
6	-91.08300018	-5.167999744	22.60099792	-0.1918997914	-4.791413307	7.173028469	1.0
7	-91.08300018	-5.167999744	22.60099792	-0.1876256317	-4.785817146	7.130119324	1.0
8	-91.08300018	-5.167999744	22.60099792	-0.1919301301	-4.765506744	7.131658077	1.0
[RightHandIndex2]
6	-36.76399994	0	0	-0.6249973178	-2.764256716	20.50691605	1.0
7	-36.76399994	0	0	-0.6254181862	-2.765027285	20.51561356	1.0
8	-36.76399994	0	0	-0.6262980103	-2.76664567	20.53382492	1.0
[RightHandIndex3]
6	-28.83100128	0	0	-0.2369190902	-0.1510137618	13.7786274	1.0
7	-28.83100128	0	0	-0.2371287942	-0.1518637985	13.78728867	1.0
8	-28.83100128	0	0	-0.2375669777	-0.1536423117	13.80543804	1.0
[RightHandIndex4]
6	-23.92700005	0	0	0	0	0	1.0
7	-23.92700005	0	0	0	0	0	1.0
8	-23.92700005	0	0	0	0	0	1.0
[RightHandThumb1]
6	-24.64799881	-15.72700024	26.82600021	18.71567535	3.416145086	-10.01891327	1.0
7	-24.64799881	-15.72700024	26.82600021	18.71482658	3.278549671	-10.11859989	1.0
8	-24.64799881	-15.72700024	26.82600021	18.65798378	3.13761735	-10.26965714	1.0
[RightHandThumb2]
6	-32.29800034	-18.64699936	18.64699936	-0.2710906863	-32.28202057	2.509756327	1.0
7	-32.29800034	-18.64699936	18.64699936	-0.1888550371	-32.23594666	2.486409426	1.0
8	-32.29800034	-18.64699936	18.64699936	-0.09751333296	-32.21907425	2.486763477	1.0
[RightHandThumb3]
6	-26.52600098	-15.31399918	15.31399918	1.898309708	-8.56947422	0.8584458828	1.0
7	-26.52600098	-15.31399918	15.31399918	1.901081085	-8.578638077	0.860886097	1.0
8	-26.52600098	-15.31399918	15.31399918	1.902321696	-8.582765579	0.8619666696	1.0
[RightHandThumb4]
6	-19.54599953	-11.28499985	11.28499985	0	0	0	1.0
7	-19.54599953	-11.28499985	11.28499985	0	0	0	1.0
8	-19.54599953	-11.28499985	11.28499985	0	0	0	1.0
[LeftUpLeg]
6	82.07800293	-67.51699829	-15.99599934	-20.61616516	13.93264103	11.96846962	1.0
7	82.07800293	-67.51699829	-15.99599934	-22.07381439	14.26894665	11.62779999	1.0
8	82.07800293	-67.51699829	-15.99599934	-23.66795349	14.85731411	11.25526905	1.0
[LeftLeg]
6	0	-443.7049866	2.845999956	22.66024017	-0.3957649469	1.866563559	1.0
7	0	-443.7049866	2.845999956	24.07075119	-1.967630744	0.2124209553	1.0
8	0	-443.7049866	2.845999956	26.11297989	-3.542015076	-1.749384761	1.0
[LeftFoot]
6	0	-444.2789917	-29.8219986	0.5440155268	-0.5621562004	-7.9629879	1.0
7	0	-444.2789917	-29.8219986	0.3365574777	4.670021534	-6.217473507	1.0
8	0	-444.2789917	-29.8219986	-0.3871100843	11.62142372	-4.033736229	1.0
[LeftToeBase]
6	0	-87.28699493	107.1060028	0.06225568429	1.005000649e-05	-4.697143368e-07	1.0
7	0	-87.28699493	107.1060028	-1.962723494	1.126708139e-05	-1.119011699e-06	1.0
8	0	-87.28699493	107.1060028	-4.602530003	1.199767939e-05	-2.028051995e-06	1.0
[RightUpLeg]
6	-82.07800293	-67.51699829	-15.99599934	-3.202640533	-8.038864136	13.75113106	1.0
7	-82.07800293	-67.51699829	-15.99599934	-4.289246082	-7.634797096	14.65966511	1.0
8	-82.07800293	-67.51699829	-15.99599934	-5.531135559	-7.072435379	15.60119438	1.0
[RightLeg]
6	0	-443.7049866	2.861999989	11.95514584	-10.45527458	1.975118041	1.0
7	0	-443.7049866	2.861999989	12.12010956	-10.3410387	1.230578661	1.0
8	0	-443.7049866	2.861999989	12.36003971	-10.19541264	0.2758912444	1.0
[RightFoot]
6	0	-444.2770081	-29.83799934	-10.90289021	-8.739673615	-9.24979496	1.0
7	0	-444.2770081	-29.83799934	-10.1616497	-12.29295349	-9.077148438	1.0
8	0	-444.2770081	-29.83799934	-9.302507401	-15.97223663	-8.788366318	1.0
[RightToeBase]
6	0	-87.28699493	107.1060028	-0.5217521191	-7.762316727e-07	4.512646967e-07	1.0
7	0	-87.28699493	107.1060028	-0.5216862559	-2.213774906e-06	1.734878083e-06	1.0
8	0	-87.28699493	107.1060028	-0.521540463	-3.210762543e-06	2.940004379e-06	1.0
[EndOfFile]
